<mxfile host="app.diagrams.net" agent="Mozilla/5.0 (Windows NT 10.0; Win64; x64) AppleWebKit/537.36 (KHTML, like Gecko) Chrome/130.0.0.0 Safari/537.36" version="24.8.4">
  <diagram name="Page-1" id="il2P9KNbYuL3kTMInQ1x">
    <mxGraphModel dx="712" dy="737" grid="0" gridSize="10" guides="1" tooltips="1" connect="1" arrows="1" fold="1" page="0" pageScale="1" pageWidth="850" pageHeight="1100" math="0" shadow="0">
      <root>
        <mxCell id="0" />
        <mxCell id="1" parent="0" />
        <mxCell id="nVdO0QlVxkQp7d4cwTSY-10" value="" style="endArrow=none;html=1;rounded=0;" edge="1" parent="1">
          <mxGeometry width="50" height="50" relative="1" as="geometry">
            <mxPoint x="214" y="243" as="sourcePoint" />
            <mxPoint x="321" y="409" as="targetPoint" />
            <Array as="points">
              <mxPoint x="214" y="61" />
              <mxPoint x="302" y="64" />
              <mxPoint x="330" y="156" />
              <mxPoint x="468" y="158" />
              <mxPoint x="468" y="212" />
              <mxPoint x="537" y="212" />
              <mxPoint x="537" y="158" />
              <mxPoint x="624" y="158" />
              <mxPoint x="624" y="216" />
              <mxPoint x="702" y="216" />
              <mxPoint x="704" y="156" />
              <mxPoint x="779" y="156" />
              <mxPoint x="808" y="71" />
              <mxPoint x="857" y="74" />
              <mxPoint x="857" y="146" />
              <mxPoint x="835" y="146" />
              <mxPoint x="835" y="175" />
              <mxPoint x="857" y="175" />
              <mxPoint x="861" y="280" />
              <mxPoint x="779" y="280" />
              <mxPoint x="775" y="395" />
            </Array>
          </mxGeometry>
        </mxCell>
      </root>
    </mxGraphModel>
  </diagram>
</mxfile>
